<svg width="15" height="15" viewBox="0 0 15 15" fill="none" xmlns="http://www.w3.org/2000/svg">
<path d="M7.2077 1.35146C9.13337 1.35146 9.35942 1.36039 10.1205 1.39611C10.8244 1.42885 11.205 1.5509 11.4596 1.65509C11.7973 1.79202 12.0376 1.95277 12.2894 2.21473C12.5412 2.47668 12.6986 2.72673 12.8274 3.07799C12.9246 3.34293 13.0448 3.73884 13.0763 4.47113C13.1106 5.26295 13.1192 5.49811 13.1192 7.50149C13.1192 9.50486 13.1106 9.74003 13.0763 10.5319C13.0448 11.2641 12.9275 11.6601 12.8274 11.925C12.6957 12.2762 12.5412 12.5263 12.2894 12.7883C12.0376 13.0502 11.7973 13.2139 11.4596 13.3479C11.205 13.4491 10.8244 13.5741 10.1205 13.6069C9.35942 13.6426 9.13337 13.6515 7.2077 13.6515C5.28202 13.6515 5.05597 13.6426 4.29486 13.6069C3.59097 13.5741 3.21041 13.4521 2.95576 13.3479C2.61812 13.211 2.37777 13.0502 2.12597 12.7883C1.87417 12.5263 1.7168 12.2762 1.58804 11.925C1.49075 11.6601 1.37058 11.2641 1.3391 10.5319C1.30477 9.74003 1.29618 9.50486 1.29618 7.50149C1.29618 5.49811 1.30477 5.26295 1.3391 4.47113C1.37058 3.73884 1.48789 3.34293 1.58804 3.07799C1.71966 2.72673 1.87417 2.47668 2.12597 2.21473C2.37777 1.95277 2.61812 1.78905 2.95576 1.65509C3.21041 1.55388 3.59097 1.42885 4.29486 1.39611C5.05597 1.35741 5.28488 1.35146 7.2077 1.35146ZM7.2077 0C5.25054 0 5.00447 0.00893034 4.23477 0.0446517C3.46793 0.0803731 2.94431 0.208375 2.4865 0.392935C2.01152 0.583449 1.61093 0.842429 1.21034 1.25918C0.809757 1.67593 0.563682 2.09565 0.377696 2.58682C0.200293 3.06311 0.077256 3.60786 0.04292 4.40861C0.008584 5.20639 0 5.46239 0 7.49851C0 9.53463 0.008584 9.79063 0.04292 10.5914C0.077256 11.3892 0.200293 11.9339 0.377696 12.4132C0.560821 12.9073 0.809757 13.3241 1.21034 13.7408C1.61093 14.1576 2.01438 14.4136 2.4865 14.6071C2.94431 14.7916 3.46793 14.9196 4.23763 14.9553C5.00733 14.9911 5.25054 15 7.21056 15C9.17057 15 9.41378 14.9911 10.1835 14.9553C10.9503 14.9196 11.4739 14.7916 11.9346 14.6071C12.4096 14.4166 12.8102 14.1576 13.2108 13.7408C13.6114 13.3241 13.8574 12.9043 14.0434 12.4132C14.2208 11.9369 14.3439 11.3921 14.3782 10.5914C14.4125 9.79063 14.4211 9.53761 14.4211 7.49851C14.4211 5.45942 14.4125 5.20639 14.3782 4.40564C14.3439 3.60786 14.2208 3.06311 14.0434 2.58385C13.8603 2.0897 13.6114 1.67295 13.2108 1.2562C12.8102 0.839452 12.4067 0.583449 11.9346 0.389958C11.4768 0.205398 10.9532 0.0773963 10.1835 0.0416749C9.41092 0.00893034 9.16485 0 7.2077 0Z" fill="#291644"/>
<path d="M7.20592 3.65039C5.16293 3.65039 3.50336 5.37395 3.50336 7.50235C3.50336 9.63074 5.16007 11.3543 7.20592 11.3543C9.25177 11.3543 10.9085 9.63074 10.9085 7.50235C10.9085 5.37395 9.25177 3.65039 7.20592 3.65039ZM7.20592 9.99987C5.87826 9.99987 4.8024 8.8806 4.8024 7.49937C4.8024 6.11814 5.87826 4.99887 7.20592 4.99887C8.53358 4.99887 9.60944 6.11814 9.60944 7.49937C9.60944 8.8806 8.53358 9.99987 7.20592 9.99987Z" fill="#291644"/>
<path d="M11.057 4.39368C11.5342 4.39368 11.9211 3.99119 11.9211 3.49469C11.9211 2.99819 11.5342 2.5957 11.057 2.5957C10.5797 2.5957 10.1928 2.99819 10.1928 3.49469C10.1928 3.99119 10.5797 4.39368 11.057 4.39368Z" fill="#291644"/>
</svg>
