<svg width="16" height="15" viewBox="0 0 16 15" fill="none" xmlns="http://www.w3.org/2000/svg">
<path d="M15.022 9.20058V15H11.809V9.59302C11.809 8.24128 11.35 7.30378 10.1816 7.30378C9.28443 7.30378 8.76283 7.93605 8.53333 8.52471C8.44987 8.74273 8.42901 9.04797 8.42901 9.3532V15H5.19511C5.19511 15 5.23683 5.82122 5.19511 4.88372H8.40814V6.32267C8.40814 6.34448 8.38728 6.34448 8.38728 6.36628H8.40814V6.32267C8.84628 5.625 9.59739 4.64389 11.3082 4.64389C13.4363 4.64389 15.022 6.08285 15.022 9.20058ZM1.81516 0C0.730236 0 0 0.763081 0 1.74419C0 2.72529 0.709372 3.48837 1.77343 3.48837H1.79429C2.92094 3.48837 3.60945 2.70349 3.60945 1.74419C3.60945 0.763081 2.92094 0 1.81516 0ZM0.187775 15H3.40081V4.88372H0.187775V15Z" fill="white"/>
</svg>
