<svg width="37" height="41" viewBox="0 0 37 41" fill="none" xmlns="http://www.w3.org/2000/svg">
<path d="M14.8341 8.5037C17.2496 8.5037 19.2104 6.59865 19.2104 4.25185C19.2104 1.90505 17.2496 0 14.8341 0C12.4186 0 10.4578 1.90505 10.4578 4.25185C10.4578 6.59865 12.4186 8.5037 14.8341 8.5037Z" fill="white"/>
<path d="M22.8763 14.5234C19.0684 14.5234 15.5161 16.042 12.9301 18.444C10.3441 20.8736 8.75269 24.1591 8.75269 27.6931C8.75269 31.2271 10.3441 34.5403 12.9301 36.9699C15.5161 39.3995 19.0684 40.9181 22.8763 40.9181C26.6843 40.9181 30.2366 39.3995 32.8226 36.9699C35.4086 34.5403 37 31.2271 37 27.6931C37 24.1591 35.4086 20.8736 32.8226 18.444C30.2366 16.0143 26.7127 14.5234 22.8763 14.5234ZM34.0161 27.6931C34.0161 30.7578 32.7657 33.5739 30.7481 35.617C28.7304 37.6601 25.9455 38.9578 22.8763 38.9854C19.7788 38.9854 16.9939 37.6878 14.9762 35.617C12.9585 33.5739 11.7081 30.7578 11.7081 27.6931C11.7081 24.6561 12.9585 21.8675 14.9762 19.8244C16.9939 17.7814 19.7788 16.4837 22.8763 16.4837C25.9455 16.5113 28.7304 17.7814 30.7481 19.8244C32.7657 21.8399 34.0161 24.6561 34.0161 27.6931Z" fill="white"/>
<path d="M4.00691 0.138672H0V41.0006H4.00691V0.138672Z" fill="white"/>
</svg>
