<svg width="15" height="15" viewBox="0 0 15 15" fill="none" xmlns="http://www.w3.org/2000/svg">
<path d="M7.2194 0C3.23098 0 0 3.35793 0 7.50308C0 10.6827 1.90545 13.401 4.58609 14.4895C4.521 13.893 4.46774 12.9828 4.60976 12.337C4.73995 11.7528 5.45597 8.61009 5.45597 8.61009C5.45597 8.61009 5.24294 8.16113 5.24294 7.49693C5.24294 6.45141 5.82286 5.67651 6.55071 5.67651C7.16614 5.67651 7.46202 6.15621 7.46202 6.73432C7.46202 7.38007 7.06554 8.33948 6.86434 9.23124C6.69274 9.9754 7.22531 10.5843 7.93542 10.5843C9.21953 10.5843 10.2018 9.17589 10.2018 7.14637C10.2018 5.35055 8.95915 4.09594 7.18389 4.09594C5.13051 4.09594 3.92333 5.69496 3.92333 7.34932C3.92333 7.99508 4.16003 8.68389 4.46182 9.05904C4.521 9.13284 4.52692 9.20049 4.50916 9.27429C4.45591 9.51415 4.33164 10.0185 4.30797 10.123C4.27838 10.2583 4.20145 10.2891 4.06535 10.2214C3.16588 9.78475 2.5978 8.41328 2.5978 7.31242C2.5978 4.94465 4.25471 2.77368 7.36734 2.77368C9.87045 2.77368 11.8173 4.631 11.8173 7.10947C11.8173 9.6925 10.2492 11.7774 8.07152 11.7774C7.33775 11.7774 6.65131 11.3838 6.41461 10.9164C6.41461 10.9164 6.05364 12.3493 5.96488 12.6999C5.79919 13.3518 5.36129 14.1697 5.06541 14.6679C5.74001 14.8831 6.45603 15 7.20164 15C11.1901 15 14.421 11.6421 14.421 7.49693C14.4388 3.35793 11.2078 0 7.2194 0Z" fill="#291644"/>
</svg>
